<svg xmlns="http://www.w3.org/2000/svg" viewBox="0 0 155.427 60">
  <path
    d="M127.26 262.31a22.152 22.152 0 0 1-22.153 22.152 22.152 22.152 0 0 1-22.152-22.152 22.152 22.152 0 0 1 22.152-22.153 22.152 22.152 0 0 1 22.152 22.153z"
    style="fill:#fff;stroke-width:.78343165" transform="translate(-27.286 -237)" />
  <path style="fill:#000;fill-opacity:1;stroke-width:.78343165"
    d="M104.955 237c7.041 0 12.981 2.417 17.817 7.252 4.863 4.865 7.297 10.805 7.297 17.818 0 7.044-2.388 12.908-7.164 17.593-5.074 4.985-11.057 7.477-17.95 7.477-6.776 0-12.655-2.463-17.638-7.388-4.924-4.925-7.387-10.818-7.387-17.682 0-6.864 2.463-12.803 7.387-17.817C92.152 239.417 98.03 237 104.955 237zm.09 4.522c-5.701 0-10.52 2-14.46 5.999-4.09 4.179-6.134 9.029-6.134 14.55 0 5.551 2.03 10.357 6.087 14.413 4.06 4.06 8.894 6.088 14.505 6.088 5.58 0 10.446-2.042 14.594-6.132 3.94-3.79 5.91-8.58 5.91-14.37 0-5.701-2-10.55-5.998-14.55-3.999-3.999-8.834-5.998-14.505-5.998zm6.715 14.325v10.251h-2.864v12.176h-7.79V266.1H98.24v-10.252c0-.448.157-.828.47-1.141a1.56 1.56 0 0 1 1.14-.47h10.298c.418 0 .791.156 1.119.47.327.313.492.694.492 1.141zm-10.253-6.446c0-2.357 1.163-3.536 3.493-3.536 2.329 0 3.491 1.178 3.491 3.536 0 2.328-1.164 3.492-3.491 3.492-2.328 0-3.493-1.164-3.493-3.492z"
    transform="translate(-27.286 -237)" />
  <g style="font-size:11.84622288px;line-height:125%;font-family:Sans;letter-spacing:0;word-spacing:0;fill:#000;stroke-width:.78343165"
    aria-label="BY">
    <path style="font-weight:700;font-family:Arial;stroke-width:.78343165"
      d="M97.3 296.654h3.886c.995 0 1.658-.19 2.18-.628.52-.438.853-1.161.853-1.86 0-.853-.45-1.528-1.434-2.097.853-.545 1.185-1.042 1.185-1.777 0-.604-.296-1.22-.782-1.646-.51-.439-1.114-.628-2.038-.628H97.3zm1.777-7.155h1.931c.83 0 1.256.331 1.256.971 0 .652-.427.983-1.256.983h-1.93zm0 3.435h2.12c.866 0 1.316.38 1.316 1.125 0 .735-.45 1.114-1.315 1.114h-2.12zM109.253 293.455l2.737-5.437H110l-1.647 3.814-1.765-3.814h-1.979l2.867 5.437v3.199h1.777z"
      transform="translate(-27.286 -237)" />
  </g>
  <path style="fill:#fff;stroke-width:.78343165"
    d="M75.17 262.07a22.591 22.591 0 0 1-22.59 22.592 22.591 22.591 0 0 1-22.591-22.591 22.591 22.591 0 0 1 22.59-22.591 22.591 22.591 0 0 1 22.592 22.59Z"
    transform="translate(-27.286 -237)" />
  <path
    d="M52.31 237c7.013 0 12.983 2.448 17.907 7.342 2.357 2.358 4.148 5.052 5.372 8.08 1.223 3.03 1.836 6.245 1.836 9.648 0 3.432-.605 6.648-1.813 9.646-1.208 3-2.992 5.649-5.349 7.947-2.446 2.416-5.222 4.268-8.327 5.551a24.957 24.957 0 0 1-9.624 1.925c-3.313 0-6.484-.633-9.514-1.903-3.028-1.268-5.744-3.103-8.147-5.505-2.403-2.402-4.23-5.111-5.484-8.126-1.254-3.015-1.88-6.192-1.88-9.535 0-3.313.633-6.499 1.902-9.558 1.268-3.06 3.111-5.797 5.528-8.215C39.492 239.433 45.357 237 52.31 237zm.09 4.522c-5.73 0-10.55 2-14.46 5.999-1.97 2-3.484 4.245-4.544 6.737a19.746 19.746 0 0 0-1.59 7.813c0 2.686.53 5.275 1.59 7.766a20.768 20.768 0 0 0 4.544 6.672c1.97 1.955 4.193 3.446 6.671 4.477a20.097 20.097 0 0 0 7.79 1.544c2.686 0 5.288-.521 7.813-1.566 2.522-1.046 4.795-2.552 6.826-4.521 3.91-3.82 5.863-8.61 5.863-14.372 0-2.775-.507-5.401-1.522-7.879-1.013-2.477-2.491-4.684-4.43-6.626-4.03-4.029-8.88-6.044-14.55-6.044zm-.313 16.386-3.359 1.746c-.359-.745-.798-1.269-1.32-1.567-.522-.298-1.007-.447-1.455-.447-2.238 0-3.358 1.476-3.358 4.431 0 1.343.283 2.417.85 3.223s1.403 1.21 2.508 1.21c1.462 0 2.492-.718 3.09-2.15l3.088 1.567a7.365 7.365 0 0 1-2.731 2.888c-1.163.702-2.447 1.052-3.85 1.052-2.238 0-4.045-.685-5.418-2.06-1.372-1.372-2.058-3.282-2.058-5.729 0-2.388.694-4.282 2.081-5.685 1.388-1.402 3.14-2.104 5.26-2.104 3.106-.002 5.328 1.207 6.672 3.625zm14.46 0-3.314 1.746c-.358-.745-.799-1.269-1.32-1.567-.524-.298-1.024-.447-1.5-.447-2.238 0-3.358 1.476-3.358 4.431 0 1.343.284 2.417.85 3.223.567.806 1.402 1.21 2.508 1.21 1.461 0 2.491-.718 3.088-2.15l3.133 1.567a7.696 7.696 0 0 1-2.774 2.888 7.234 7.234 0 0 1-3.805 1.052c-2.269 0-4.08-.685-5.438-2.06-1.36-1.372-2.038-3.282-2.038-5.729 0-2.388.693-4.282 2.082-5.685 1.387-1.402 3.14-2.104 5.26-2.104 3.103-.002 5.313 1.207 6.626 3.625z"
    style="stroke-width:.78343165" transform="translate(-27.286 -237)" />
  <path style="fill:#fff;stroke-width:.78343165"
    d="M180.01 262.172a22.802 22.802 0 0 1-22.802 22.802 22.802 22.802 0 0 1-22.802-22.802 22.802 22.802 0 0 1 22.802-22.801 22.802 22.802 0 0 1 22.802 22.801z"
    transform="translate(-27.286 -237)" />
  <path
    d="M157.6 237c7.012 0 12.95 2.433 17.816 7.298 4.863 4.835 7.298 10.759 7.298 17.772 0 7.015-2.39 12.893-7.165 17.638-5.043 4.954-11.028 7.432-17.95 7.432-6.776 0-12.655-2.463-17.638-7.387-4.924-4.924-7.387-10.817-7.387-17.682 0-6.834 2.463-12.759 7.387-17.773 4.864-4.865 10.744-7.298 17.638-7.298Zm.088 4.522c-5.7 0-10.52 2.015-14.46 6.044-4.089 4.15-6.133 8.984-6.133 14.504 0 5.582 2.03 10.386 6.087 14.415 4.06 4.06 8.894 6.088 14.505 6.088 5.58 0 10.446-2.044 14.594-6.133 3.94-3.82 5.91-8.61 5.91-14.37 0-5.73-2-10.565-5.998-14.504-3.97-4.03-8.805-6.044-14.505-6.044zm-11.192 17.01c.477-3.074 1.715-5.454 3.715-7.14 2-1.686 4.431-2.528 7.297-2.528 3.938 0 7.074 1.269 9.401 3.804 2.328 2.537 3.492 5.79 3.492 9.76 0 3.85-1.209 7.05-3.625 9.6-2.42 2.552-5.551 3.829-9.403 3.829-2.835 0-5.282-.85-7.341-2.552-2.06-1.702-3.298-4.119-3.716-7.252h6.314c.149 3.044 1.984 4.566 5.506 4.566 1.76 0 3.179-.761 4.253-2.283 1.076-1.52 1.613-3.552 1.613-6.088 0-2.656-.493-4.677-1.477-6.066-.985-1.387-2.402-2.081-4.254-2.081-3.343 0-5.223 1.477-5.64 4.43h1.835l-4.968 4.97-4.97-4.97z"
    style="stroke-width:.78343165" transform="translate(-27.286 -237)" />
  <g aria-label="SA"
    style="font-size:11.84622288px;line-height:125%;font-family:Sans;letter-spacing:0;word-spacing:0;fill:#000;stroke-width:.78343165">
    <path
      d="M156.41 290.721c-.012-1.788-1.209-2.772-3.388-2.772-2.074 0-3.27.972-3.27 2.654 0 1.339.675 1.99 2.428 2.322l1.209.237c1.184.225 1.623.557 1.623 1.256 0 .722-.664 1.16-1.742 1.16-1.208 0-1.883-.509-1.942-1.433h-1.73c.107 1.848 1.374 2.855 3.578 2.855 2.227 0 3.542-1.03 3.542-2.796 0-1.362-.688-2.073-2.287-2.38l-1.35-.261c-1.268-.25-1.635-.498-1.635-1.126 0-.651.569-1.066 1.493-1.066 1.125 0 1.753.474 1.812 1.35zM162.818 294.986l.569 1.742h1.824l-2.985-8.636h-1.966l-3.069 8.636h1.813l.58-1.742zm-.485-1.48h-2.251l1.125-3.377z"
      style="font-weight:700;font-family:Arial;stroke-width:.78343165" transform="translate(-27.286 -237)" />
  </g>
</svg>