<svg xmlns="http://www.w3.org/2000/svg" xmlns:xlink="http://www.w3.org/1999/xlink" viewBox="0 0 132.292 132.292"
   height="500" width="500">
   <defs>
      <linearGradient gradientTransform="matrix(.27701 0 0 .27701 158.936 36.124)" xlink:href="#a" id="b" x1="-224.204"
         y1="509.831" x2="-444.039" y2="895.669" gradientUnits="userSpaceOnUse" />
      <linearGradient id="a">
         <stop offset="0" style="stop-color:#450096;stop-opacity:1" />
         <stop offset=".186" style="stop-color:#050d90;stop-opacity:1" />
         <stop style="stop-color:#0b8a13;stop-opacity:1" offset=".366" />
         <stop offset=".583" style="stop-color:#f7f01b;stop-opacity:1" />
         <stop style="stop-color:#bb5a03;stop-opacity:1" offset=".784" />
         <stop offset="1" style="stop-color:red;stop-opacity:1" />
      </linearGradient>
   </defs>
   <path
      style="fill:url(#b);fill-opacity:1;stroke:#fff;stroke-width:1.32291663;stroke-linecap:square;stroke-linejoin:round;stroke-miterlimit:4;stroke-dasharray:none;stroke-opacity:1;paint-order:markers stroke fill"
      d="M50.902 280.308v-3.462H35.943V262.44h7.48V241.388h7.479V234.463h7.48V227.538h-7.48v-35.18h-7.48v-14.42l3.928.053 3.809-.041-.044 7.136.074 6.995h7.192v-6.926h7.463l-.04-3.579-.018-3.603 7.745-.022 7.565-.007v7.488h-7.48V192.357h-7.479V206.208h14.96V213.133h7.479v7.202h7.756v7.202h-7.757v6.926h-7.479V241.388h7.48v6.91l3.808.077 3.81.077.077 3.532.077 3.532H73.617v7.202h-7.48v6.648H88.576V276.57h7.757v7.202h-45.43v-3.463m22.438-63.435v-3.463h-7.202v6.926h7.202v-3.463"
      transform="translate(0 -164.708)" />
</svg>